<?xml version="1.0" standalone="no"?>
<!DOCTYPE svg PUBLIC "-//W3C//DTD SVG 20010904//EN"
 "http://www.w3.org/TR/2001/REC-SVG-20010904/DTD/svg10.dtd">
<svg version="1.0" xmlns="http://www.w3.org/2000/svg"
 width="1080.000000pt" height="1080.000000pt" viewBox="0 0 1080.000000 1080.000000"
 preserveAspectRatio="xMidYMid meet">
<metadata>
Created by potrace 1.14, written by Peter Selinger 2001-2017
</metadata>
<g transform="translate(0.000000,1080.000000) scale(0.100000,-0.100000)"
fill="#000000" stroke="none">
<path d="M966 7828 c-9 -91 -15 -137 -22 -188 -9 -65 -12 -88 -19 -155 -3 -33
-8 -73 -10 -90 -5 -40 -16 -123 -20 -160 -2 -16 -7 -51 -10 -77 -3 -27 -7 -69
-10 -95 -3 -27 -8 -59 -10 -73 -3 -14 -7 -52 -10 -85 -4 -33 -8 -71 -10 -85
-2 -14 -7 -47 -10 -75 -3 -27 -8 -66 -11 -86 -2 -20 -7 -59 -10 -85 -2 -27 -6
-60 -9 -74 -2 -14 -7 -50 -10 -80 -3 -30 -8 -66 -10 -80 -5 -39 -15 -121 -20
-165 -2 -22 -6 -56 -9 -75 -3 -19 -10 -75 -16 -125 -5 -49 -12 -108 -15 -130
-3 -22 -7 -60 -10 -85 -3 -25 -7 -59 -10 -76 -2 -17 -7 -57 -11 -89 -3 -32 -8
-68 -10 -79 -2 -11 -6 -50 -9 -86 -4 -36 -8 -72 -10 -80 -2 -8 -7 -42 -10 -75
-3 -33 -8 -71 -10 -85 -3 -14 -7 -52 -11 -85 -3 -33 -7 -71 -9 -85 -7 -44 -34
-266 -40 -320 -5 -47 -16 -135 -20 -160 -2 -14 -7 -52 -10 -85 -3 -33 -8 -67
-10 -75 -2 -8 -7 -42 -10 -75 -3 -33 -15 -134 -26 -225 -11 -91 -22 -183 -24
-205 -2 -22 -6 -56 -9 -75 -3 -19 -8 -57 -11 -85 -3 -27 -10 -81 -15 -120 -9
-66 -12 -94 -25 -212 -3 -27 -8 -57 -10 -68 -2 -11 -7 -51 -11 -90 -3 -38 -12
-109 -18 -157 -7 -48 -12 -102 -12 -119 l1 -32 498 0 c273 0 499 2 502 4 7 7
17 76 30 199 2 19 6 53 9 75 8 54 15 109 22 175 3 30 7 69 10 85 3 17 7 48 9
69 3 21 7 55 9 75 8 51 37 288 42 336 2 22 7 60 11 85 3 25 7 59 9 75 1 17 6
50 9 75 9 60 12 88 25 200 14 119 20 168 25 200 3 14 7 52 10 85 3 33 7 69 9
80 3 18 14 102 21 165 2 14 3 28 4 31 1 3 487 6 1081 6 594 0 1078 -3 1076 -6
-2 -3 -7 -33 -11 -66 -3 -33 -8 -75 -11 -92 -9 -69 -13 -100 -19 -158 -4 -33
-9 -73 -11 -90 -2 -16 -13 -104 -24 -195 -24 -198 -29 -234 -35 -280 -3 -19
-7 -53 -10 -75 -5 -49 -15 -131 -20 -165 -2 -14 -7 -54 -10 -90 -4 -36 -9 -72
-10 -80 -3 -16 -13 -92 -20 -155 -3 -22 -7 -60 -10 -85 -4 -25 -8 -58 -10 -75
-2 -16 -6 -52 -10 -80 -7 -52 -9 -70 -21 -170 -4 -33 -8 -82 -8 -109 l-1 -49
493 -1 c272 -1 498 1 502 4 9 5 15 40 26 150 3 36 7 67 9 70 2 3 6 39 10 80 4
41 9 83 11 94 2 10 6 44 9 75 3 31 8 67 10 81 3 14 7 52 11 85 3 33 8 68 10
78 2 10 6 46 9 80 3 34 8 73 10 87 2 14 7 50 10 80 4 30 8 66 10 80 2 14 6 48
9 75 8 72 18 147 22 170 2 11 7 45 9 75 3 30 8 71 10 90 3 19 7 53 9 75 3 22
10 78 16 125 13 103 18 142 25 199 2 24 7 60 9 80 3 20 8 61 11 91 3 30 8 66
10 80 6 40 18 133 20 160 1 14 5 46 9 73 3 26 8 66 11 90 3 23 16 134 30 247
14 113 28 225 31 250 3 25 7 56 9 70 2 14 7 50 10 80 3 30 8 71 10 90 3 19 7
54 10 78 13 106 25 205 51 412 3 25 8 63 10 85 3 22 9 76 15 120 5 44 12 96
14 115 2 19 9 73 15 120 12 98 17 136 25 205 3 28 7 64 9 80 2 17 7 55 11 85
3 30 8 66 10 80 2 14 6 50 10 80 3 30 10 89 15 130 5 41 12 98 15 125 4 28 8
60 10 73 l4 22 -508 0 -509 0 -7 -67 c-4 -38 -8 -75 -10 -83 -2 -8 -6 -43 -10
-77 -4 -35 -9 -73 -10 -85 -2 -13 -6 -48 -10 -78 -3 -30 -8 -66 -10 -80 -2
-14 -6 -50 -10 -80 -3 -30 -8 -66 -10 -80 -2 -14 -7 -47 -10 -75 -17 -165 -25
-231 -37 -310 -5 -38 -11 -90 -13 -114 -2 -24 -7 -65 -10 -90 -4 -25 -8 -57
-10 -71 -2 -14 -6 -47 -9 -75 -3 -27 -8 -68 -10 -90 -4 -39 -13 -109 -21 -170
-12 -91 -16 -123 -19 -155 -2 -19 -7 -55 -10 -80 -4 -25 -8 -62 -10 -83 -2
-21 -6 -41 -10 -44 -3 -3 -487 -6 -1077 -7 l-1071 -1 6 70 c4 39 8 81 10 95 3
14 7 50 10 80 4 30 8 66 11 80 2 14 9 70 15 125 6 55 13 111 15 125 2 14 11
88 20 165 8 77 20 169 25 205 5 36 12 92 15 125 4 33 8 74 11 90 2 17 20 161
39 320 19 160 37 310 40 335 6 48 12 89 20 145 l6 35 -509 0 -509 0 -7 -62z"/>
<path d="M6449 7888 c-3 -12 -9 -53 -14 -103 -4 -33 -8 -71 -10 -85 -3 -14 -7
-47 -10 -75 -3 -27 -7 -59 -9 -70 -2 -12 -7 -51 -10 -87 -4 -37 -9 -76 -11
-87 -2 -11 -7 -51 -10 -88 -4 -37 -9 -77 -11 -88 -2 -11 -6 -42 -9 -70 -3 -27
-10 -84 -15 -125 -5 -41 -12 -95 -15 -120 -3 -25 -8 -63 -11 -85 -2 -22 -6
-56 -9 -75 -2 -19 -6 -53 -9 -75 -3 -22 -8 -60 -10 -85 -3 -25 -7 -58 -10 -75
-2 -16 -7 -55 -11 -86 -3 -31 -7 -65 -9 -75 -2 -11 -7 -50 -10 -89 -4 -38 -9
-86 -12 -105 -10 -75 -14 -107 -19 -150 -3 -25 -14 -115 -24 -200 -11 -85 -23
-180 -26 -210 -3 -30 -8 -66 -10 -80 -2 -14 -9 -70 -15 -125 -6 -55 -13 -111
-15 -125 -2 -14 -6 -45 -9 -70 -3 -25 -12 -99 -20 -165 -8 -66 -18 -145 -21
-175 -4 -30 -8 -66 -10 -80 -2 -14 -6 -43 -9 -65 -3 -22 -8 -62 -11 -90 -3
-27 -7 -66 -9 -85 -3 -19 -7 -60 -11 -90 -3 -30 -8 -66 -10 -80 -2 -14 -7 -50
-10 -80 -3 -30 -7 -66 -10 -80 -2 -14 -7 -47 -10 -75 -3 -27 -7 -66 -10 -85
-4 -34 -8 -65 -20 -175 -3 -27 -8 -61 -10 -75 -2 -14 -6 -50 -10 -80 -3 -30
-8 -71 -10 -90 -3 -19 -7 -53 -10 -75 -2 -22 -11 -94 -20 -160 -8 -66 -17
-145 -21 -175 -3 -30 -7 -66 -10 -80 -5 -31 -17 -147 -18 -179 l-1 -24 500 1
c275 0 502 1 506 1 3 1 5 11 6 24 1 29 12 128 18 156 2 12 7 49 10 82 4 33 8
69 10 80 2 11 7 47 10 80 4 33 8 69 10 79 2 10 7 45 10 77 4 32 8 69 10 83 1
14 6 52 9 85 4 33 9 71 11 85 2 14 7 50 10 80 4 30 8 66 10 80 6 41 24 181 30
240 3 30 8 66 10 80 2 14 7 50 10 80 3 30 8 66 10 80 3 14 7 50 10 80 8 71 13
116 19 160 3 19 8 58 11 85 3 28 8 70 12 95 6 48 10 85 12 111 1 14 101 16
1080 16 l1079 0 -3 -21 c-2 -12 -6 -43 -9 -71 -6 -50 -52 -427 -61 -497 -6
-46 -14 -110 -20 -160 -3 -21 -7 -55 -10 -75 -2 -21 -16 -132 -30 -248 -15
-115 -28 -223 -30 -240 -5 -35 -31 -246 -40 -320 -3 -27 -8 -66 -10 -85 -3
-19 -7 -59 -10 -88 -4 -29 -10 -74 -14 -100 -4 -26 -7 -62 -7 -81 l1 -34 506
-1 c498 -1 505 -1 506 19 0 21 11 124 18 165 4 27 12 91 20 168 3 26 8 63 10
82 7 49 15 118 20 160 2 19 6 53 9 75 3 22 8 65 12 95 12 112 24 202 29 230 2
9 6 49 10 89 3 40 8 80 9 89 2 9 7 44 10 77 4 33 9 71 11 85 2 14 6 45 9 70
14 111 37 309 42 345 2 22 6 56 9 75 2 19 18 148 35 285 35 287 36 301 46 375
8 69 11 90 18 165 4 33 8 69 11 80 2 11 7 47 10 80 3 33 8 71 10 85 8 56 15
108 20 155 13 112 16 143 25 215 9 72 14 113 26 210 2 25 7 54 9 65 2 11 7 54
11 95 3 41 8 77 10 81 1 3 6 39 10 80 3 40 8 77 10 80 1 3 6 37 9 75 3 38 8
76 10 84 2 8 7 44 10 80 3 36 8 72 10 80 2 8 7 44 10 80 4 36 8 76 10 90 6 42
18 134 20 160 2 14 6 52 9 85 4 33 9 70 11 81 3 12 7 48 10 80 4 33 10 88 15
124 5 36 10 68 10 73 0 4 -229 7 -510 7 l-510 0 -1 -32 c0 -18 -2 -40 -4 -48
-1 -8 -6 -46 -9 -83 -4 -37 -9 -76 -11 -85 -1 -9 -6 -42 -9 -72 -4 -30 -9 -71
-11 -90 -3 -19 -7 -57 -10 -85 -10 -85 -15 -129 -20 -165 -10 -75 -17 -126
-20 -160 -2 -19 -6 -53 -9 -75 -3 -22 -8 -65 -11 -95 -4 -30 -8 -66 -10 -80
-2 -14 -7 -51 -10 -83 -4 -32 -8 -66 -10 -75 -1 -9 -6 -46 -9 -82 -4 -36 -9
-76 -11 -90 -2 -14 -7 -50 -10 -80 -3 -30 -8 -66 -10 -80 -5 -28 -15 -117 -20
-170 -2 -19 -6 -51 -9 -70 -3 -19 -8 -60 -11 -90 -8 -77 -10 -89 -18 -96 -4
-4 -489 -8 -1078 -8 l-1071 -1 7 55 c3 30 8 75 11 100 3 25 11 95 19 155 13
104 18 142 31 253 3 26 9 83 15 127 5 44 12 96 14 115 2 19 7 53 9 75 3 22 8
58 10 80 3 22 8 60 11 85 3 25 7 61 10 80 2 19 7 60 10 90 7 61 34 281 40 320
2 14 6 54 10 90 4 36 8 76 10 90 2 14 9 66 15 115 5 50 13 107 16 128 l6 37
-506 0 c-278 0 -506 -1 -507 -2z"/>
</g>
</svg>
